<svg xmlns="http://www.w3.org/2000/svg" viewBox="0 0 621.05 104.94">
    <title>ListValet Logo</title>
    <g id="Layer_2" data-name="Layer 2">
        <g id="Layer_1-2" data-name="Layer 1">
            <path class="cls-1"
                  d="M568.27,60.64a51.78,51.78,0,0,0-1.89-16.42,30.48,30.48,0,0,0-7.79-13.6,34,34,0,0,0-11.77-7.43,40.66,40.66,0,0,0-14.19-2.42q-15.43,0-25.88,10.66T496.31,58.86q0,17.2,10.29,27.79T534,97.24q12.93,0,22.5-6.54a28.16,28.16,0,0,0,10.6-13.26,3.58,3.58,0,0,0-3.3-4.91H552.53a3.44,3.44,0,0,0-2.94,1.59,14.51,14.51,0,0,1-5.49,5.11,20.19,20.19,0,0,1-9.85,2.42q-17.07,0-19.56-17.5h50A3.59,3.59,0,0,0,568.27,60.64ZM515.43,50.33a19.53,19.53,0,0,1,6.47-10.74,17.78,17.78,0,0,1,11.61-3.82q7.37,0,12,4.34a14.64,14.64,0,0,1,4.93,10.22Z"/>
            <path class="cls-1"
                  d="M186,5.7a12,12,0,0,0-8.6,3.46,11.39,11.39,0,0,0-3.6,8.6,11.38,11.38,0,0,0,3.6,8.31,11.74,11.74,0,0,0,8.6,3.6,11.45,11.45,0,0,0,8.39-3.53,11.44,11.44,0,0,0,3.52-8.38,11.68,11.68,0,0,0-3.45-8.6A11.51,11.51,0,0,0,186,5.7"/>
            <path class="cls-1"
                  d="M191.58,36.06H180a3.79,3.79,0,0,0-3.79,3.79V92A3.79,3.79,0,0,0,180,95.77h11.55A3.79,3.79,0,0,0,195.37,92V39.85a3.79,3.79,0,0,0-3.79-3.79"/>
            <path class="cls-1"
                  d="M263,75.49q0,10.44-8.09,16.09t-21,5.66q-14.1,0-22.63-7A25.17,25.17,0,0,1,202.27,74a2.62,2.62,0,0,1,2.56-3h13.38a2.58,2.58,0,0,1,2.52,2.12,10,10,0,0,0,4.09,6.63,15.7,15.7,0,0,0,9.33,2.86,13,13,0,0,0,7.13-1.83,6.24,6.24,0,0,0,2.86-5.31,7,7,0,0,0-3.52-6q-3.54-2.28-11-4.19-5.15-1.47-8.67-2.79a51.63,51.63,0,0,1-7.79-3.82,17.66,17.66,0,0,1-6.54-6.47A17.94,17.94,0,0,1,204.31,43a19.28,19.28,0,0,1,8-16.1q8-6.09,20.36-6.1t20.21,6.54A23.1,23.1,0,0,1,260.94,41,2.59,2.59,0,0,1,258.39,44H245.61a2.58,2.58,0,0,1-2.44-1.79,8.92,8.92,0,0,0-3.29-4.46,13.06,13.06,0,0,0-8.08-2.43,10.06,10.06,0,0,0-6.1,1.77A5.67,5.67,0,0,0,223.27,42a6.11,6.11,0,0,0,3.24,5.29c2.15,1.38,5.93,2.84,11.31,4.41q12.21,3.52,18.67,8.89T263,75.49"/>
            <path class="cls-1"
                  d="M311.62,28.71H296.93V14.17a4,4,0,0,0-4-4h-9.37a4,4,0,0,0-4,4v5.57a9.68,9.68,0,0,1-3,7.57c-1.34,1.22-5.47,2-8.05,2.42a2.57,2.57,0,0,0-2.17,2.53v8.31A3.44,3.44,0,0,0,269.77,44h8.05V73.71q0,23.54,22.35,23.53a27.26,27.26,0,0,0,11.74-2.53,3.59,3.59,0,0,0,1.95-4.16l-2.19-8.18a3.53,3.53,0,0,0-4.45-2.46,11.76,11.76,0,0,1-3.52.57q-6.76,0-6.77-8.53V44h14.69a3.55,3.55,0,0,0,3.55-3.55V32.26a3.55,3.55,0,0,0-3.55-3.55"/>
            <path class="cls-1"
                  d="M617.5,28.71H602.81V14.17a4,4,0,0,0-4-4h-9.37a4,4,0,0,0-4,4v5.57a9.71,9.71,0,0,1-3,7.57c-1.35,1.22-5.48,2-8.06,2.42a2.57,2.57,0,0,0-2.17,2.53V42.53A1.47,1.47,0,0,0,573.69,44h10V73.71q0,23.54,22.35,23.53a27.34,27.34,0,0,0,11.75-2.53,3.58,3.58,0,0,0,1.93-4.16l-2.18-8.18a3.53,3.53,0,0,0-4.45-2.46,11.76,11.76,0,0,1-3.52.57q-6.76,0-6.77-8.53V44H617.5a3.55,3.55,0,0,0,3.55-3.55V32.26a3.55,3.55,0,0,0-3.55-3.55"/>
            <path class="cls-1"
                  d="M380.26,10.18A3.41,3.41,0,0,0,377,12.61L358.75,74h-1.62L338.67,12.6a3.4,3.4,0,0,0-3.27-2.42H321.52a3.41,3.41,0,0,0-3.25,4.43l24.84,78.68a3.55,3.55,0,0,0,3.39,2.48h22.44a3.55,3.55,0,0,0,3.39-2.48l24.84-78.68a3.41,3.41,0,0,0-3.25-4.43Z"/>
            <path class="cls-1"
                  d="M164.3,76.5H133.12V13.58a3.4,3.4,0,0,0-3.41-3.4H115.5a3.41,3.41,0,0,0-3.41,3.4V92.22a3.55,3.55,0,0,0,3.55,3.55l48.66,0a3.24,3.24,0,0,0,3.25-3.24V79.75a3.26,3.26,0,0,0-3.25-3.25"/>
            <path class="cls-1"
                  d="M462.82,82.38A2.68,2.68,0,0,0,461,79.8a4.26,4.26,0,0,1-1.87-1.09q-1.4-1.47-1.39-5V51.06q0-14.7-8.54-22.5T427,20.77q-13.53,0-21.77,7.28a26.34,26.34,0,0,0-8.53,14.69A3.55,3.55,0,0,0,400.25,47h11.16a3.6,3.6,0,0,0,3.4-2.59A15.35,15.35,0,0,1,418,38.78q3.17-3.6,9.19-3.6a11.37,11.37,0,0,1,8.9,3.68q3.32,3.68,3.31,10v1.47l-13.67,1q-33,2.51-33,24.56,0,10.14,7.13,15.73t18.9,5.59q16.47,0,25.59-11,2.92,8.27,12.75,9.38c.45,0,1.57.09,2.7.12a2.91,2.91,0,0,0,3-2.9ZM439.39,64.89q0,7.94-5.37,12.64a18.27,18.27,0,0,1-12.42,4.71,11.27,11.27,0,0,1-6.92-2A6.53,6.53,0,0,1,412,74.74q0-9,18.09-10.59l9.26-.73Z"/>
            <path class="cls-1"
                  d="M486.64,10.18H474a3.41,3.41,0,0,0-3.41,3.41V92.36A3.41,3.41,0,0,0,474,95.77h12.6a3.41,3.41,0,0,0,3.41-3.41V13.59a3.41,3.41,0,0,0-3.41-3.41"/>
            <path class="cls-1"
                  d="M44.66,77.92a11.72,11.72,0,0,1-8.33-3.44l-7-7a22.36,22.36,0,0,1-.54-31.22,21.89,21.89,0,0,1,15.86-6.72h0a21.93,21.93,0,0,1,15.87,6.72A22.37,22.37,0,0,1,60,67.49l-7,7A11.72,11.72,0,0,1,44.66,77.92ZM43,67.8a2.34,2.34,0,0,0,3.32,0l7-7a12.9,12.9,0,0,0,.43-18,12.66,12.66,0,0,0-18.16,0,12.89,12.89,0,0,0,.44,18Z"/>
            <path class="cls-1"
                  d="M44.78,104.94a17.32,17.32,0,0,1-12.31-5.09L13.09,80.47A44.62,44.62,0,0,1,0,49.86V19.43A19.46,19.46,0,0,1,19.43,0h50.7A19.46,19.46,0,0,1,89.56,19.43V49.86A44.62,44.62,0,0,1,76.47,80.47L57.09,99.85A17.34,17.34,0,0,1,44.78,104.94ZM9.44,49.69A35.23,35.23,0,0,0,19.76,73.8L39.15,93.18a8,8,0,0,0,11.26,0L69.8,73.8A35.28,35.28,0,0,0,80.12,49.69V19.43a10,10,0,0,0-10-10H19.43a10,10,0,0,0-10,10Z"/>
        </g>
    </g>
</svg>