<svg xmlns="http://www.w3.org/2000/svg" viewBox="0 0 122.42 143.46" width="100%" height="100%">
    <title>ListValet Icon</title>
    <g id="valet" dataName="valet" class="valet">
        <path class="cls-1"
              d="M61.05,106.52a16,16,0,0,1-11.39-4.71l-9.55-9.55C28.33,80.48,28,61.33,39.36,49.58a29.92,29.92,0,0,1,21.69-9.19h0a29.92,29.92,0,0,1,21.69,9.19c11.36,11.75,11,30.9-.75,42.68l-9.55,9.55A16.07,16.07,0,0,1,61.05,106.52ZM58.78,92.68a3.2,3.2,0,0,0,4.53,0l9.56-9.55c6.83-6.83,7.09-17.86.59-24.58a17.29,17.29,0,0,0-24.82,0c-6.5,6.72-6.24,17.75.59,24.58Z"/>
        <path class="cls-1"
              d="M61.21,143.46a23.71,23.71,0,0,1-16.82-7L17.89,110A60.94,60.94,0,0,1,0,68.16V26.56A26.6,26.6,0,0,1,26.56,0h69.3a26.59,26.59,0,0,1,26.56,26.56v41.6A60.94,60.94,0,0,1,104.53,110L78,136.5A23.74,23.74,0,0,1,61.21,143.46ZM12.9,67.93A48.15,48.15,0,0,0,27,100.88l26.5,26.49a10.89,10.89,0,0,0,15.4,0l26.5-26.49a48.15,48.15,0,0,0,14.11-32.95V26.56A13.68,13.68,0,0,0,95.86,12.9H26.56A13.68,13.68,0,0,0,12.9,26.56Z"/>
    </g>
</svg>